HIERARCHY
ROOT Hips
{
	OFFSET 0.000000 0.000000 0.000000
	CHANNELS 6 Xposition Yposition Zposition Yrotation Xrotation Zrotation
	JOINT Spine
	{
		OFFSET 0.000000 -0.744707 -0.000000
		CHANNELS 6 Xposition Yposition Zposition Yrotation Xrotation Zrotation
		JOINT Spine1
		{
			OFFSET 0.000000 -2.032240 -0.000000
			CHANNELS 6 Xposition Yposition Zposition Yrotation Xrotation Zrotation
			JOINT Neck
			{
				OFFSET 0.000000 -2.213880 -0.000000
				CHANNELS 6 Xposition Yposition Zposition Yrotation Xrotation Zrotation
				JOINT Head
				{
					OFFSET 0.000000 -1.407680 -0.181636
					CHANNELS 6 Xposition Yposition Zposition Yrotation Xrotation Zrotation
					End Site
					{
						OFFSET 0.000000 -1.816356 -0.000000
					}
				}
			}
			JOINT LeftShoulder
			{
				OFFSET 0.365767 -1.787590 0.048012
				CHANNELS 6 Xposition Yposition Zposition Yrotation Xrotation Zrotation
				JOINT LeftArm
				{
					OFFSET 1.305160 0.000000 0.000000
					CHANNELS 6 Xposition Yposition Zposition Yrotation Xrotation Zrotation
					JOINT LeftForeArm
					{
						OFFSET 2.559210 0.000000 0.000000
						CHANNELS 6 Xposition Yposition Zposition Yrotation Xrotation Zrotation
						JOINT LeftHand
						{
							OFFSET 2.378450 0.000000 0.000000
							CHANNELS 6 Xposition Yposition Zposition Yrotation Xrotation Zrotation
							End Site
							{
								OFFSET 1.362267 0.000000 0.000000
							}
						}
					}
				}
			}
			JOINT RightShoulder
			{
				OFFSET -0.360721 -1.787590 0.048012
				CHANNELS 6 Xposition Yposition Zposition Yrotation Xrotation Zrotation
				JOINT RightArm
				{
					OFFSET -1.305160 0.000000 0.000000
					CHANNELS 6 Xposition Yposition Zposition Yrotation Xrotation Zrotation
					JOINT RightForeArm
					{
						OFFSET -2.559210 0.000000 0.000000
						CHANNELS 6 Xposition Yposition Zposition Yrotation Xrotation Zrotation
						JOINT RightHand
						{
							OFFSET -2.378450 0.000000 0.000000
							CHANNELS 6 Xposition Yposition Zposition Yrotation Xrotation Zrotation
							End Site
							{
								OFFSET -1.362267 0.000000 0.000000
							}
						}
					}
				}
			}
		}
	}
	JOINT LeftUpLeg
	{
		OFFSET 0.908180 0.000000 0.000000
		CHANNELS 6 Xposition Yposition Zposition Yrotation Xrotation Zrotation
		JOINT LeftLeg
		{
			OFFSET 0.000000 3.819490 0.000002
			CHANNELS 6 Xposition Yposition Zposition Yrotation Xrotation Zrotation
			JOINT LeftFoot
			{
				OFFSET 0.000000 4.004300 0.000002
				CHANNELS 6 Xposition Yposition Zposition Yrotation Xrotation Zrotation
				JOINT LeftToeBase
				{
					OFFSET 0.000000 0.590317 -1.362270
					CHANNELS 6 Xposition Yposition Zposition Yrotation Xrotation Zrotation
					End Site
					{
						OFFSET 0.000000 0.000000 -0.363271
					}
				}
			}
		}
	}
	JOINT RightUpLeg
	{
		OFFSET -0.908180 0.000000 0.000000
		CHANNELS 6 Xposition Yposition Zposition Yrotation Xrotation Zrotation
		JOINT RightLeg
		{
			OFFSET 0.000000 3.819490 0.000002
			CHANNELS 6 Xposition Yposition Zposition Yrotation Xrotation Zrotation
			JOINT RightFoot
			{
				OFFSET 0.000000 4.004300 0.000002
				CHANNELS 6 Xposition Yposition Zposition Yrotation Xrotation Zrotation
				JOINT RightToeBase
				{
					OFFSET 0.000000 0.590317 -1.362270
					CHANNELS 6 Xposition Yposition Zposition Yrotation Xrotation Zrotation
					End Site
					{
						OFFSET 0.000000 0.000000 -0.363271
					}
				}
			}
		}
	}
}
MOTION
Frames: 4
Frame Time: 0.016667
-1.172897 -7.610187 -1.838406 0.188810 9.134061 -1.304791 -0.000000 -0.744707 0.000000 2.232044 -17.832231 3.843650 0.000000 -2.032241 -0.000002 0.305521 6.048383 -12.220953 -0.000000 -2.213882 -0.000001 -3.448814 12.436068 -1.516044 -0.000000 -1.407679 -0.181636 -4.348647 1.750973 7.390160 0.365767 -1.787590 0.048012 0.331820 -8.581551 -21.170561 1.305162 -0.000003 -0.000000 12.467127 -9.910559 1.607325 2.559211 0.000000 0.000000 -0.666906 -5.863377 2.228618 2.378450 0.000000 -0.000001 -19.938605 -4.840505 5.911018 -0.360721 -1.787590 0.048012 5.559914 -0.544548 16.842201 -1.305160 -0.000002 0.000000 -32.209659 33.083046 -18.891349 -2.559210 0.000001 -0.000001 -74.908433 25.945618 34.872361 -2.378451 -0.000000 0.000000 10.622794 -5.879735 47.254192 0.908180 0.000000 0.000000 -10.589216 -21.321668 -13.478405 0.000000 3.819491 0.000002 -4.008494 22.725511 0.399249 -0.000000 4.004301 0.000002 -18.047076 0.843077 8.771320 -0.000000 0.590317 -1.362270 0.000001 -0.000001 -0.000002 -0.908180 0.000000 0.000000 -3.593527 -22.600430 22.465378 0.000001 3.819490 0.000002 -21.422757 25.615812 -20.593700 -0.000000 4.004300 0.000002 49.603030 -6.917934 -14.931560 -0.000000 0.590316 -1.362270 0.000002 0.000001 0.000004 
-1.173770 -7.610147 -1.838429 0.197298 9.133522 -1.295998 -0.000000 -0.744705 0.000000 2.227326 -17.839518 3.838053 0.000000 -2.032238 -0.000001 0.303163 6.053029 -12.224270 -0.000000 -2.213880 -0.000000 -3.504083 12.450639 -1.544031 0.000000 -1.407683 -0.181637 -4.408349 1.702128 7.399858 0.365767 -1.787588 0.048011 0.338738 -8.586488 -21.160927 1.305162 0.000000 -0.000000 12.461690 -9.916744 1.602760 2.559211 -0.000000 0.000001 -0.673420 -5.867699 2.243086 2.378451 0.000001 -0.000000 -19.947735 -4.852933 5.863292 -0.360721 -1.787588 0.048011 5.552148 -0.544640 16.847242 -1.305161 0.000002 -0.000000 -32.206985 33.150289 -18.901302 -2.559211 0.000000 -0.000002 -74.875279 25.957750 34.959101 -2.378449 0.000001 -0.000000 10.570357 -5.903115 47.256576 0.908180 0.000001 0.000000 -10.564645 -21.310267 -13.498577 0.000000 3.819489 0.000002 -4.033033 22.716827 0.393028 0.000000 4.004301 0.000000 -18.054341 0.854601 8.816302 -0.000000 0.590317 -1.362270 -0.000002 -0.000002 -0.000000 -0.908180 0.000001 0.000000 -3.583459 -22.601929 22.445451 0.000001 3.819491 0.000002 -21.404355 25.616341 -20.579435 -0.000000 4.004300 0.000001 49.579609 -6.925453 -14.921368 -0.000000 0.590316 -1.362270 -0.000002 0.000002 -0.000001 
-1.174628 -7.609983 -1.838607 0.197314 9.126397 -1.295804 0.000000 -0.744707 0.000000 2.227189 -17.835176 3.840029 -0.000000 -2.032241 -0.000000 0.303399 6.049614 -12.227265 -0.000000 -2.213879 -0.000000 -3.566482 12.445937 -1.565783 0.000000 -1.407683 -0.181637 -4.471034 1.683065 7.385139 0.365767 -1.787590 0.048012 0.342367 -8.592616 -21.146623 1.305162 -0.000003 -0.000000 12.458217 -9.887997 1.597124 2.559211 -0.000003 0.000001 -0.674140 -5.875237 2.249774 2.378449 0.000001 0.000000 -19.953313 -4.860268 5.863180 -0.360722 -1.787589 0.048012 5.561556 -0.533936 16.852353 -1.305161 -0.000002 -0.000000 -32.198536 33.153865 -18.883151 -2.559209 0.000001 -0.000001 -74.885538 25.955743 34.970312 -2.378449 0.000000 -0.000000 10.598191 -5.933294 47.259865 0.908180 0.000000 0.000000 -10.541539 -21.295719 -13.509841 0.000000 3.819490 0.000002 -4.016324 22.708922 0.398397 0.000000 4.004299 0.000001 -18.084575 0.853228 8.778978 0.000000 0.590317 -1.362270 0.000003 -0.000002 -0.000000 -0.908180 0.000000 0.000000 -3.557932 -22.604289 22.432081 0.000000 3.819490 0.000002 -21.449463 25.614116 -20.591883 -0.000000 4.004299 0.000001 49.587973 -6.945190 -14.897257 -0.000000 0.590317 -1.362270 0.000008 -0.000000 -0.000001 
-1.175332 -7.609899 -1.838417 0.208255 9.126066 -1.285100 0.000000 -0.744708 -0.000000 2.222400 -17.838902 3.827939 0.000000 -2.032239 -0.000000 0.300865 6.053931 -12.226716 -0.000000 -2.213878 0.000000 -3.620717 12.445190 -1.584795 -0.000000 -1.407678 -0.181636 -4.526489 1.655849 7.376442 0.365767 -1.787590 0.048012 0.337470 -8.600149 -21.149671 1.305159 0.000002 0.000000 12.458085 -9.862766 1.616233 2.559212 -0.000001 0.000000 -0.669670 -5.885026 2.244298 2.378449 0.000001 -0.000000 -19.965664 -4.868058 5.870231 -0.360721 -1.787588 0.048012 5.555676 -0.539171 16.866867 -1.305160 0.000001 -0.000001 -32.181423 33.138606 -18.881935 -2.559209 -0.000001 0.000000 -74.907456 25.957195 34.948166 -2.378449 0.000002 -0.000001 10.618244 -5.932853 47.263372 0.908180 -0.000000 0.000000 -10.499693 -21.280984 -13.532942 -0.000000 3.819490 0.000001 -4.060832 22.695832 0.383382 -0.000000 4.004301 0.000001 -18.089293 0.854030 8.784135 0.000000 0.590317 -1.362270 -0.000001 -0.000001 -0.000002 -0.908180 -0.000001 -0.000000 -3.561242 -22.619312 22.417559 0.000001 3.819491 0.000001 -21.484734 25.623771 -20.614582 -0.000000 4.004300 0.000001 49.610819 -6.942011 -14.908266 0.000001 0.590317 -1.362269 0.000003 -0.000000 -0.000000 
